# xmcd
#
# Track frame offsets:
#	150
#	16250
#	30582
#
# Disc length: 601 seconds
#
# Revision: 1
# Processed by: cddbd v1.5.2PL0 Copyright (c) Steve Scherf et al.
# Submitted via: EasyCDDAExtractor 10.0.2.1
#
DISCID=16025703
DTITLE=Carlene Carter - Something Already Gone
DYEAR=1994
DGENRE=Country
TTITLE0=Something Already Gone
TTITLE1=Dream On Texas Ladies
TTITLE2=Amazing Grace
EXTD=
EXTT0=
EXTT1=
EXTT2=
PLAYORDER=
